<svg width="228" height="227" fill="none" xmlns="http://www.w3.org/2000/svg"><g filter="url(#a)"><path d="M197.14 87.607c16.445 43.038-12.488 93.719-56.667 109.739-44.178 16.021-93.323-5.881-109.768-48.919C14.261 105.39 51.7 51.23 95.878 35.21c44.179-16.02 84.817 9.36 101.262 52.397Z" fill="#33CFC6"/><path d="M193.591 90.754c16.241 42.504-5.956 89.82-49.633 105.658-43.676 15.839-92.23-5.821-108.47-48.326-8.12-21.251-6.95-47.168 1.757-69.777 8.708-22.61 24.894-41.764 46.642-49.65 21.727-7.88 45.041-3.072 65.024 9.108 19.987 12.182 36.54 31.685 44.68 52.987Z" stroke="#9AFBF5" stroke-width="2"/></g><path d="m63.594 165.002 9.536-1.782-2.43-13.005 7.245-1.354c9.723-1.818 16.553-8.478 14.678-18.51-1.678-8.98-9.08-13.941-19.421-12.008l-17.711 3.31 8.103 43.349Zm5.52-23.271-2.477-13.252 7.369-1.378c4.768-.891 8.17.844 8.968 5.117.718 3.84-1.537 7.209-6.305 8.101l-7.555 1.412Zm35.845 15.539 16.906-3.16c13.624-2.546 21.266-13.781 18.986-25.98-2.304-12.324-13.464-19.915-27.088-17.369l-16.907 3.16 8.103 43.349Zm7.928-10.39-4.885-26.133 7.37-1.378c7.802-1.458 14.073 2.945 15.509 10.624 1.458 7.803-2.822 14.051-10.625 15.509l-7.369 1.378Zm40.513 1.336 9.537-1.783-3.137-16.782 20.684-3.866-1.62-8.67-20.684 3.866-1.725-9.227 23.471-4.387-1.621-8.67-33.007 6.17 8.102 43.349Zm-91.627-35.721c3.318-.62 5.09-2.02 6.506-4.243l-2.89-2.13c-1.122 1.481-2.18 2.493-4.145 2.86-2.95.552-5.448-1.525-6-4.474-.56-2.998 1.079-5.796 3.979-6.338 1.966-.368 3.23.133 4.781 1.09l1.774-3.028c-1.891-1.274-3.94-2.163-7.183-1.557-5.283.988-8.22 5.683-7.307 10.573.933 4.989 5.423 8.193 10.485 7.247Zm10.027-2.18 3.785-.707-.983-5.259 1.605-2.436 6.701 6.326 4.546-.85-9.174-8.534 5.64-8.608-4.571.854-5.574 8.825-1.406-7.52-3.784.707 3.216 17.202Zm16.477-3.079 3.858-.722.852-4.152 7.274-1.359 2.294 3.564 3.956-.74-10.61-15.947-3.49.653-4.134 18.703Zm5.436-8.468 1.243-6.006 3.328 5.151-4.57.855Zm25.43 2.698 3.785-.707-3.216-17.202-3.784.707 1.387 7.422c-.672.76-2.03 1.523-3.553 1.808-1.942.363-3.002-.685-3.402-2.823l-.969-5.185-3.784.707 1.176 6.291c.744 3.981 3.438 5.334 6.854 4.696 1.745-.326 3.258-1.347 4.307-2.128l1.199 6.414Zm6.427-1.201 3.859-.721.851-4.153 7.274-1.36 2.294 3.565 3.957-.74-10.611-15.946-3.49.652-4.134 18.703Zm5.437-8.468 1.243-6.006 3.328 5.151-4.571.855Zm19.458 3.815 3.785-.708-2.563-13.712 5.234-.979-.652-3.49-14.254 2.665.653 3.49 5.234-.979 2.563 13.713Zm11.93-2.23 7.2-1.346c4.03-.754 6.119-3.458 5.457-6.997-.629-3.367-3.353-5.147-7.334-4.403l-3.661.685-1.093-5.849-3.785.708 3.216 17.202Zm5.61-9.442c1.893-.354 3.007.303 3.278 1.753.299 1.597-.508 2.587-2.376 2.936l-3.367.63-.877-4.694 3.342-.625Z" fill="#2E595B"/><defs><filter id="a" x="22.754" y="23.817" width="183.053" height="186.776" filterUnits="userSpaceOnUse" color-interpolation-filters="sRGB"><feFlood flood-opacity="0" result="BackgroundImageFix"/><feColorMatrix in="SourceAlpha" values="0 0 0 0 0 0 0 0 0 0 0 0 0 0 0 0 0 0 127 0" result="hardAlpha"/><feOffset dy="4"/><feGaussianBlur stdDeviation="2"/><feComposite in2="hardAlpha" operator="out"/><feColorMatrix values="0 0 0 0 0 0 0 0 0 0 0 0 0 0 0 0 0 0 0.25 0"/><feBlend in2="BackgroundImageFix" result="effect1_dropShadow_49_365"/><feBlend in="SourceGraphic" in2="effect1_dropShadow_49_365" result="shape"/></filter></defs></svg>