<svg width="40" height="41" fill="none" xmlns="http://www.w3.org/2000/svg"><path fill-rule="evenodd" clip-rule="evenodd" d="M16.438.255C9.137 1.614 3.002 7.218.861 14.485c-.639 2.168-.86 3.717-.862 6.03-.007 10.087 7.186 18.708 16.934 20.295 1.551.253 4.589.253 6.14 0 8.556-1.393 15.383-8.394 16.741-17.17.247-1.59.247-4.706 0-6.298C38.476 8.692 31.842 1.757 23.47.252c-1.883-.337-5.207-.336-7.032.003Zm-4.083 14.686c.252 2.854 1.182 5.363 2.554 6.89.733.815 1.92 1.619 2.39 1.619.128 0 .193-1.655.193-4.963v-4.962h3.722v2.863c0 1.574.03 2.863.065 2.863.383 0 1.518-.576 2.285-1.16 1.047-.797 2.361-2.656 2.702-3.822l.218-.744h1.831c2.141 0 2.133-.011 1.364 1.954-.595 1.52-2.055 3.52-3.254 4.458-.512.4-.93.783-.93.85 0 .066.188.209.418.317 1.475.692 3.66 3.163 4.521 5.114.857 1.941.953 1.813-1.353 1.813h-2.02l-.508-1.062c-.957-2-2.864-3.61-4.734-3.997l-.605-.125v5.184h-1.105c-4.323 0-8.056-2.37-9.946-6.317-1.092-2.282-1.774-5.134-1.786-7.474l-.004-.715h3.857l.125 1.416Z" fill="#8BADA9"/></svg>