<svg width="414" height="424" fill="none" xmlns="http://www.w3.org/2000/svg">
<g filter="url(#a)"><path d="M359.193 163.853c29.963 80.494-22.753 175.285-103.247 205.248-80.494 29.963-170.037-11.001-200-91.495-29.963-80.494 38.252-181.79 118.746-211.753 80.494-29.963 154.538 17.506 184.501 98Z" fill="#2E595B"/>
<path d="M352.097 169.973c29.482 79.2-10.823 167.303-90.023 196.785-79.2 29.481-167.304-10.824-196.785-90.024-14.737-39.591-12.621-87.909 3.2-130.075 15.823-42.171 45.199-77.805 84.576-92.463 39.326-14.638 81.581-5.728 117.875 16.98 36.301 22.71 66.374 59.081 81.157 98.797Z" stroke="#4B8D7D" stroke-width="5"/>
<path d="M118.163 216.766c-2.673.995-4.038 2.534-4.969 4.451l2.064 1.195c.734-1.524 1.81-2.588 3.599-3.254 1.682-.625 3.159-.218 3.632 1.054.529 1.422-.367 2.64-2.286 3.354l-1.681.626.819 2.198 1.702-.634c1.962-.73 3.69-.637 4.268.915.529 1.423-.516 2.769-2.111 3.363-2.048.762-3.929.652-5.769-.135l-.762 2.369c2.283.991 4.523 1.139 7.454.048 3.363-1.252 4.826-3.981 3.895-6.481-.73-1.961-2.427-2.63-4.301-2.522 1.128-1.058 1.979-2.528 1.257-4.468-.874-2.35-3.685-3.242-6.811-2.079Zm13.225 12.551 2.716-1.011.196-4.22 7.134-2.656 2.887 3.073 2.802-1.043-12.296-12.725-2.457.915-.982 17.667Zm3.007-7.942.34-6.998 4.855 5.065-5.195 1.933Zm15.315 1.122 2.652-.987-4.726-12.696 7.005-2.608 4.726 12.696 2.651-.987-5.616-15.088-12.308 4.581 5.616 15.089Zm16.188-6.026 2.5-.93 3.517-13.826 4.092 10.993 2.608-.971-5.616-15.088-2.479.923-3.531 13.855-4.1-11.015-2.608.971 5.617 15.088Zm23.731-8.539c2.823-1.051 4.163-2.727 5.126-4.951l-2.344-1.091c-.844 1.689-1.749 2.884-3.603 3.574-2.888 1.076-5.878-.56-6.977-3.513-1.115-2.996.093-6.146 2.982-7.221 1.724-.642 3.298-.369 4.922.303l.973-2.596c-1.958-.842-4-1.186-6.781-.151-4.569 1.701-6.473 6.41-4.876 10.7 1.628 4.375 6.181 6.583 10.578 4.946Zm7.518-3.093 2.716-1.011.196-4.221 7.135-2.655 2.887 3.073 2.802-1.043-12.296-12.725-2.457.914-.983 17.668Zm3.008-7.942.34-6.998 4.855 5.064-5.195 1.934Zm19.023-.259 2.672-.994-4.701-12.632 4.785-1.781-.915-2.457-12.243 4.557.915 2.457 4.785-1.781 4.702 12.631Zm10.269-3.822 6.079-2.263c3.492-1.3 4.984-4.015 3.853-7.054-1.131-3.04-4.042-3.87-7.426-2.611l-3.471 1.292-2.022-5.432-2.629.979 5.616 15.089Zm1.747-3.35-1.853-4.979 3.362-1.252c2.005-.746 3.46-.331 4.038 1.221.634 1.703-.179 3.012-2.141 3.742l-3.406 1.268Zm19.9-4.414c2.824-1.051 4.163-2.727 5.127-4.951l-2.345-1.091c-.844 1.689-1.748 2.884-3.602 3.574-2.888 1.076-5.878-.56-6.977-3.513-1.115-2.996.093-6.146 2.981-7.221 1.725-.642 3.299-.369 4.923.303l.973-2.596c-1.958-.842-4-1.186-6.781-.151-4.57 1.701-6.473 6.41-4.877 10.7 1.629 4.375 6.181 6.583 10.578 4.946Zm7.648-3.141 3.126-1.164 1.809-6.612 3.341-1.244 1.942 5.217 2.629-.979-5.616-15.089-6.704 2.496c-3.492 1.299-4.928 3.969-3.837 6.901.931 2.5 2.988 3.477 5.317 3.272l-2.007 7.202Zm3.516-9.874c-1.897.706-3.503.151-4.088-1.423-.61-1.638.222-3.028 2.205-3.766l3.859-1.436 1.925 5.173-3.901 1.452ZM91.884 279.234l2.651-.987-2.367-6.358 7.2-2.68 2.367 6.358 2.651-.987-5.616-15.088-2.652.987 2.335 6.272-7.2 2.68-2.334-6.272-2.651.987 5.616 15.088Zm15.084-5.614 2.716-1.011.196-4.221 7.134-2.656 2.887 3.073 2.802-1.043-12.296-12.725-2.457.915-.982 17.668Zm3.007-7.943.34-6.998 4.855 5.065-5.195 1.933Zm21.778-1.283 2.651-.987-1.629-4.376 1.451-3.289 7.679 4.872 3.212-1.195-9.754-6.161 3.857-8.823-3.255 1.211-4.353 10.26-2.825-7.588-2.651.987 5.617 15.089Zm22.914-8.236c4.635-1.725 6.587-6.501 5.007-10.747-1.597-4.29-6.138-6.6-10.773-4.875-4.634 1.726-6.586 6.502-5.006 10.748 1.597 4.29 6.138 6.599 10.772 4.874Zm-.863-2.451c-2.996 1.115-6.037-.527-7.128-3.458-1.107-2.975.093-6.146 3.089-7.261 2.996-1.115 6.037.526 7.128 3.458 1.107 2.974-.093 6.145-3.089 7.261Zm11.881-1.944 2.651-.987-2.367-6.359 7.2-2.68 2.367 6.359 2.651-.987-5.617-15.089-2.651.987 2.335 6.273-7.199 2.68-2.335-6.273-2.651.987 5.616 15.089Zm23.479-8.445c2.823-1.052 4.163-2.728 5.126-4.952l-2.344-1.091c-.844 1.689-1.749 2.885-3.603 3.575-2.888 1.075-5.878-.561-6.977-3.514-1.115-2.996.093-6.146 2.981-7.221 1.725-.642 3.299-.369 4.923.303l.973-2.595c-1.958-.842-4-1.187-6.781-.151-4.569 1.701-6.473 6.41-4.877 10.699 1.629 4.376 6.181 6.583 10.579 4.947Zm11.508-4.309c1.962-.73 3.152-2.278 3.469-5.316l1.496-13.981-2.867 1.067-.873 10.313-7.964-7.023-2.975 1.107 10.547 9.081c-.298 1.51-1.093 2.272-1.762 2.521-.668.249-1.298.336-2.03.216l-.275 2.36c1.06.145 2.07.088 3.234-.345Zm13.155-4.97c2.975-1.108 4.007-3.676.436-13.268l-.505-1.358 5.216-1.942 4.726 12.696 2.651-.987-5.616-15.088-10.347 3.851 1.107 2.975c3.362 9.031 2.301 10.531.77 11.101-.323.12-.692.184-.91.191l.552 2.273a9.394 9.394 0 0 0 1.92-.444Zm16.418-6.308 6.079-2.263c3.491-1.3 4.984-4.015 3.853-7.054-1.132-3.039-4.042-3.87-7.426-2.61l-3.471 1.291-2.022-5.432-2.63.979 5.617 15.089Zm1.747-3.35-1.853-4.979 3.362-1.252c2.005-.746 3.46-.331 4.038 1.221.634 1.703-.18 3.012-2.141 3.742l-3.406 1.268Zm16.506-3.445 2.673-.995-4.702-12.631 4.785-1.781-.915-2.457-12.243 4.557.915 2.457 4.785-1.781 4.702 12.631Zm8.976-3.341 2.716-1.011.196-4.22 7.135-2.656 2.886 3.073 2.803-1.043-12.296-12.725-2.457.914-.983 17.668Zm3.008-7.942.34-6.998 4.854 5.064-5.194 1.934Zm28.18.014 2.198-.818-1.727-5.763-1.876.699-4.726-12.696-2.629.978 4.726 12.696-7.07 2.632-4.726-12.696-2.652.987 5.617 15.089 11.661-4.341 1.204 3.233Zm3.722-5.067 2.501-.931 3.517-13.825 4.092 10.993 2.608-.971-5.617-15.088-2.479.922-3.53 13.855-4.1-11.014-2.608.971 5.616 15.088Zm29.034-10.513c4.311-1.604 5.994-6.182 4.381-10.515-1.629-4.375-5.858-6.703-10.147-5.107-3.88 1.445-5.645 5.341-4.752 9.255l-2.501.93-2.351-6.315-2.651.987 5.617 15.088 2.651-.987-2.383-6.402 2.479-.922c1.894 3.638 5.734 5.449 9.657 3.988Zm-.848-2.408c-2.672.995-5.438-.7-6.562-3.718-1.139-3.061-.173-6.07 2.499-7.065 2.673-.995 5.453.67 6.576 3.687 1.139 3.061.16 6.101-2.513 7.096Z" fill="#fff"/></g>
<defs>
<filter id="a" x="44.747" y="44.545" width="326.951" height="342.368" filterUnits="userSpaceOnUse" color-interpolation-filters="sRGB">
<feFlood flood-opacity="0" result="BackgroundImageFix"/>
<feColorMatrix in="SourceAlpha" values="0 0 0 0 0 0 0 0 0 0 0 0 0 0 0 0 0 0 127 0" result="hardAlpha"/>
<feOffset dy="4"/>
<feGaussianBlur stdDeviation="2"/>
<feComposite in2="hardAlpha" operator="out"/>
<feColorMatrix values="0 0 0 0 0 0 0 0 0 0 0 0 0 0 0 0 0 0 0.25 0"/>
<feBlend in2="BackgroundImageFix" result="effect1_dropShadow_44_2"/>
<feBlend in="SourceGraphic" in2="effect1_dropShadow_44_2" result="shape"/>
</filter></defs></svg>