<svg width="228" height="227" fill="none" xmlns="http://www.w3.org/2000/svg"><g filter="url(#a)"><path d="M197.14 87.607c16.445 43.037-12.488 93.719-56.667 109.739-44.178 16.02-93.323-5.882-109.768-48.919C14.261 105.389 51.7 51.23 95.878 35.209c44.179-16.02 84.817 9.36 101.262 52.398Z" fill="#39514E"/><path d="M193.591 90.754c16.241 42.504-5.956 89.82-49.633 105.658-43.676 15.839-92.23-5.821-108.47-48.326-8.12-21.251-6.95-47.168 1.757-69.777 8.708-22.61 24.894-41.764 46.642-49.65 21.727-7.88 45.041-3.072 65.024 9.108 19.987 12.182 36.54 31.685 44.68 52.987Z" stroke="#8BADA9" stroke-width="2"/></g><path d="M163.47 121.955 80.015 79.917c-1.547-.78-3.286.643-2.829 2.314l11.21 40.977a2 2 0 0 1 0 1.051l-11.218 41.393c-.453 1.674 1.292 3.092 2.837 2.306l83.462-42.434c1.461-.743 1.457-2.832-.007-3.569Z" stroke="#4C7282"/><path d="M167.47 114.061 84.015 72.022c-1.547-.779-3.286.643-2.829 2.314l11.21 40.977a2 2 0 0 1 0 1.051l-11.218 41.394c-.453 1.673 1.292 3.092 2.837 2.306l83.462-42.434c1.461-.743 1.457-2.832-.007-3.569Z" fill="#F9CACA" stroke="#BC7667"/><defs><filter id="a" x="22.754" y="23.816" width="183.053" height="186.776" filterUnits="userSpaceOnUse" color-interpolation-filters="sRGB"><feFlood flood-opacity="0" result="BackgroundImageFix"/><feColorMatrix in="SourceAlpha" values="0 0 0 0 0 0 0 0 0 0 0 0 0 0 0 0 0 0 127 0" result="hardAlpha"/><feOffset dy="4"/><feGaussianBlur stdDeviation="2"/><feComposite in2="hardAlpha" operator="out"/><feColorMatrix values="0 0 0 0 0 0 0 0 0 0 0 0 0 0 0 0 0 0 0.25 0"/><feBlend in2="BackgroundImageFix" result="effect1_dropShadow_312_25"/><feBlend in="SourceGraphic" in2="effect1_dropShadow_312_25" result="shape"/></filter></defs></svg>