<svg width="63" height="63" fill="none" xmlns="http://www.w3.org/2000/svg"><path fill-rule="evenodd" clip-rule="evenodd" d="M25.616.392C14.24 2.48 4.678 11.092 1.343 22.257.348 25.588.003 27.97 0 31.522c-.012 15.5 11.198 28.748 26.389 31.187 2.418.388 7.152.388 9.57 0 13.333-2.141 23.97-12.9 26.087-26.383.384-2.446.384-7.233 0-9.678C59.96 13.358 49.621 2.7 36.574.388c-2.934-.52-8.116-.517-10.958.004Zm19.816 19.103c.475.732.456 1.06-.418 7.26-1.256 8.914-2.873 17.925-3.401 18.96-.574 1.121-1.408 1.55-2.53 1.302-.495-.11-3.428-1.927-6.516-4.036-5.644-3.855-6.18-4.385-5.767-5.7.096-.306 2.229-2.525 4.74-4.931 5.18-4.966 5.989-5.856 5.72-6.296-.256-.419-1.624.407-9.014 5.438-3.576 2.435-6.528 4.242-7.105 4.35-1.764.332-8.721-1.682-9.08-2.627-.094-.248-.046-.686.106-.973.343-.648 20.8-9.69 28.287-12.502 3.271-1.229 4.308-1.28 4.978-.245Z" fill="#8BADA9"/></svg>