<svg width="414" height="424" viewBox="0 0 414 424" fill="none" xmlns="http://www.w3.org/2000/svg">
<g filter="url(#filter0_d_38_184)">
<path d="M359.193 163.853C389.156 244.347 336.44 339.138 255.946 369.101C175.452 399.064 85.9087 358.1 55.9457 277.606C25.9827 197.112 94.1985 95.8164 174.692 65.8534C255.186 35.8904 329.23 83.3594 359.193 163.853Z" fill="#8BADA9"/>
<path d="M353.503 169.45C383.273 249.426 342.573 338.393 262.597 368.164C182.621 397.934 93.6534 357.234 63.8831 277.257C48.9993 237.273 51.1588 188.577 67.0844 146.132C83.0108 103.685 112.643 67.6425 152.542 52.7906C192.421 37.9462 235.165 47.0235 271.735 69.9035C308.309 92.7854 338.601 129.415 353.503 169.45Z" stroke="#4C7282" stroke-width="2"/>
<path d="M118.163 216.766C115.49 217.761 114.125 219.3 113.194 221.218L115.258 222.412C115.992 220.888 117.068 219.824 118.857 219.158C120.539 218.533 122.016 218.94 122.489 220.212C123.018 221.634 122.122 222.852 120.203 223.566L118.522 224.192L119.341 226.39L121.043 225.756C123.005 225.026 124.733 225.119 125.311 226.671C125.84 228.094 124.795 229.44 123.2 230.034C121.152 230.796 119.271 230.686 117.431 229.899L116.669 232.268C118.952 233.259 121.192 233.407 124.123 232.316C127.486 231.064 128.949 228.336 128.018 225.835C127.288 223.874 125.591 223.205 123.717 223.313C124.845 222.255 125.696 220.785 124.974 218.845C124.1 216.495 121.289 215.603 118.163 216.766ZM131.388 229.317L134.104 228.306L134.3 224.086L141.434 221.43L144.321 224.503L147.123 223.46L134.827 210.735L132.37 211.65L131.388 229.317ZM134.395 221.375L134.735 214.377L139.59 219.442L134.395 221.375ZM149.71 222.497L152.362 221.51L147.636 208.814L154.641 206.206L159.367 218.902L162.018 217.915L156.402 202.827L144.094 207.408L149.71 222.497ZM165.898 216.471L168.398 215.541L171.915 201.715L176.007 212.708L178.615 211.737L172.999 196.649L170.52 197.572L166.989 211.427L162.889 200.412L160.281 201.383L165.898 216.471ZM189.629 207.932C192.452 206.881 193.792 205.205 194.755 202.981L192.411 201.89C191.567 203.579 190.662 204.774 188.808 205.464C185.92 206.54 182.93 204.904 181.831 201.951C180.716 198.955 181.924 195.805 184.813 194.73C186.537 194.088 188.111 194.361 189.735 195.033L190.708 192.437C188.75 191.595 186.708 191.251 183.927 192.286C179.358 193.987 177.454 198.696 179.051 202.986C180.679 207.361 185.232 209.569 189.629 207.932ZM197.147 204.839L199.863 203.828L200.059 199.608L207.194 196.952L210.081 200.025L212.883 198.982L200.587 186.257L198.13 187.171L197.147 204.839ZM200.155 196.897L200.495 189.899L205.35 194.963L200.155 196.897ZM219.178 196.639L221.85 195.644L217.149 183.012L221.934 181.231L221.019 178.774L208.776 183.331L209.691 185.789L214.476 184.007L219.178 196.639ZM229.447 192.816L235.526 190.553C239.018 189.253 240.51 186.538 239.379 183.499C238.248 180.46 235.337 179.629 231.953 180.888L228.482 182.18L226.46 176.748L223.831 177.727L229.447 192.816ZM231.194 189.466L229.341 184.487L232.703 183.235C234.708 182.489 236.163 182.904 236.741 184.456C237.375 186.159 236.562 187.468 234.6 188.198L231.194 189.466ZM251.094 185.052C253.918 184.001 255.257 182.325 256.221 180.101L253.876 179.01C253.032 180.699 252.128 181.895 250.274 182.585C247.386 183.66 244.396 182.024 243.297 179.071C242.182 176.075 243.39 172.925 246.278 171.85C248.003 171.208 249.577 171.481 251.201 172.153L252.174 169.557C250.216 168.715 248.174 168.371 245.393 169.406C240.823 171.107 238.92 175.816 240.516 180.106C242.145 184.482 246.697 186.689 251.094 185.052ZM258.742 181.911L261.868 180.748L263.677 174.135L267.018 172.891L268.96 178.108L271.589 177.129L265.973 162.04L259.269 164.536C255.777 165.836 254.341 168.505 255.432 171.437C256.363 173.937 258.42 174.914 260.749 174.709L258.742 181.911ZM262.258 172.037C260.361 172.743 258.755 172.188 258.17 170.614C257.56 168.976 258.392 167.586 260.375 166.848L264.234 165.412L266.159 170.585L262.258 172.037ZM91.8842 279.234L94.5355 278.247L92.1685 271.889L99.3679 269.209L101.735 275.567L104.386 274.581L98.7696 259.492L96.1183 260.479L98.4532 266.751L91.2538 269.431L88.9189 263.159L86.2676 264.146L91.8842 279.234ZM106.968 273.62L109.684 272.609L109.88 268.388L117.014 265.732L119.901 268.805L122.703 267.762L110.407 255.037L107.95 255.952L106.968 273.62ZM109.975 265.678L110.315 258.679L115.17 263.744L109.975 265.678ZM131.753 264.394L134.404 263.407L132.775 259.031L134.226 255.742L141.905 260.615L145.117 259.419L135.363 253.258L139.22 244.435L135.965 245.646L131.612 255.906L128.787 248.318L126.136 249.305L131.753 264.394ZM154.667 256.158C159.302 254.433 161.254 249.657 159.674 245.411C158.077 241.121 153.536 238.811 148.901 240.536C144.267 242.262 142.315 247.038 143.895 251.284C145.492 255.574 150.033 257.883 154.667 256.158ZM153.804 253.707C150.808 254.822 147.767 253.181 146.676 250.249C145.569 247.274 146.769 244.104 149.765 242.988C152.761 241.873 155.802 243.514 156.893 246.446C158 249.42 156.8 252.591 153.804 253.707ZM165.685 251.763L168.336 250.776L165.969 244.417L173.169 241.737L175.536 248.096L178.187 247.109L172.57 232.02L169.919 233.007L172.254 239.28L165.055 241.96L162.72 235.687L160.069 236.674L165.685 251.763ZM189.164 243.318C191.987 242.266 193.327 240.59 194.29 238.366L191.946 237.275C191.102 238.964 190.197 240.16 188.343 240.85C185.455 241.925 182.465 240.289 181.366 237.336C180.251 234.34 181.459 231.191 184.347 230.115C186.072 229.473 187.646 229.746 189.27 230.418L190.243 227.823C188.285 226.981 186.243 226.637 183.462 227.672C178.893 229.373 176.989 234.082 178.585 238.371C180.214 242.747 184.766 244.954 189.164 243.318ZM200.672 239.009C202.634 238.279 203.824 236.731 204.141 233.693L205.637 219.712L202.77 220.779L201.897 231.092L193.933 224.069L190.958 225.176L201.505 234.257C201.207 235.767 200.412 236.529 199.743 236.778C199.075 237.027 198.445 237.114 197.713 236.994L197.438 239.354C198.498 239.499 199.508 239.442 200.672 239.009ZM213.827 234.039C216.802 232.931 217.834 230.363 214.263 220.771L213.758 219.413L218.974 217.471L223.7 230.167L226.351 229.18L220.735 214.092L210.388 217.943L211.495 220.918C214.857 229.949 213.796 231.449 212.265 232.019C211.942 232.139 211.573 232.203 211.355 232.21L211.907 234.484C212.356 234.439 213.245 234.255 213.827 234.039ZM230.245 227.731L236.324 225.468C239.815 224.168 241.308 221.453 240.177 218.414C239.045 215.375 236.135 214.544 232.751 215.804L229.28 217.095L227.258 211.664L224.628 212.642L230.245 227.731ZM231.992 224.381L230.139 219.402L233.501 218.15C235.506 217.404 236.961 217.819 237.539 219.371C238.173 221.074 237.359 222.383 235.398 223.113L231.992 224.381ZM248.498 220.936L251.171 219.942L246.469 207.31L251.254 205.529L250.339 203.072L238.096 207.629L239.011 210.086L243.796 208.305L248.498 220.936ZM257.474 217.595L260.19 216.584L260.386 212.364L267.521 209.708L270.407 212.781L273.21 211.738L260.914 199.013L258.457 199.928L257.474 217.595ZM260.482 209.653L260.822 202.655L265.676 207.719L260.482 209.653ZM288.662 209.667L290.86 208.849L289.133 203.087L287.257 203.785L282.531 191.089L279.902 192.068L284.628 204.763L277.558 207.395L272.832 194.699L270.18 195.686L275.797 210.775L287.458 206.434L288.662 209.667ZM292.384 204.6L294.885 203.67L298.402 189.844L302.494 200.837L305.102 199.866L299.485 184.778L297.006 185.701L293.476 199.556L289.376 188.541L286.768 189.512L292.384 204.6ZM321.418 194.087C325.729 192.483 327.412 187.905 325.799 183.572C324.17 179.197 319.941 176.869 315.652 178.465C311.772 179.91 310.007 183.806 310.9 187.72L308.399 188.65L306.048 182.335L303.397 183.322L309.014 198.41L311.665 197.423L309.282 191.021L311.761 190.099C313.655 193.737 317.495 195.548 321.418 194.087ZM320.57 191.679C317.898 192.674 315.132 190.979 314.008 187.961C312.869 184.901 313.835 181.891 316.507 180.896C319.18 179.901 321.96 181.566 323.083 184.583C324.222 187.644 323.243 190.684 320.57 191.679Z" fill="#FFF0B6"/>
</g>
<defs>
<filter id="filter0_d_38_184" x="44.7466" y="44.5447" width="326.951" height="342.368" filterUnits="userSpaceOnUse" color-interpolation-filters="sRGB">
<feFlood flood-opacity="0" result="BackgroundImageFix"/>
<feColorMatrix in="SourceAlpha" type="matrix" values="0 0 0 0 0 0 0 0 0 0 0 0 0 0 0 0 0 0 127 0" result="hardAlpha"/>
<feOffset dy="4"/>
<feGaussianBlur stdDeviation="2"/>
<feComposite in2="hardAlpha" operator="out"/>
<feColorMatrix type="matrix" values="0 0 0 0 0 0 0 0 0 0 0 0 0 0 0 0 0 0 0.25 0"/>
<feBlend mode="normal" in2="BackgroundImageFix" result="effect1_dropShadow_38_184"/>
<feBlend mode="normal" in="SourceGraphic" in2="effect1_dropShadow_38_184" result="shape"/>
</filter>
</defs>
</svg>
