<svg width="228" height="227" viewBox="0 0 228 227" fill="none" xmlns="http://www.w3.org/2000/svg">
<g filter="url(#filter0_d_49_365)">
<path d="M197.14 87.6073C213.585 130.645 184.652 181.326 140.473 197.346C96.2951 213.367 47.1503 191.465 30.7054 148.427C14.2605 105.39 51.7001 51.2301 95.8784 35.2098C140.057 19.1896 180.695 44.5697 197.14 87.6073Z" fill="#33CFC6"/>
<path d="M193.591 90.7538C209.832 133.258 187.635 180.574 143.958 196.412C100.282 212.251 51.7285 190.591 35.4874 148.086C27.3671 126.835 28.5371 100.918 37.2451 78.3089C45.9533 55.699 62.1392 36.5449 83.8866 28.6587C105.614 20.7796 128.928 25.5875 148.911 37.7667C168.898 49.9486 185.451 69.4517 193.591 90.7538Z" stroke="#9AFBF5" stroke-width="2"/>
</g>
<path d="M63.5936 165.002L73.1304 163.22L70.6996 150.215L77.9451 148.861C87.6677 147.043 94.4982 140.383 92.623 130.351C90.9446 121.371 83.5439 116.41 73.202 118.343L55.4908 121.653L63.5936 165.002ZM69.1137 141.731L66.6366 128.479L74.006 127.101C78.7744 126.21 82.1752 127.945 82.9739 132.218C83.6916 136.058 81.4373 139.427 76.6689 140.319L69.1137 141.731ZM104.959 157.27L121.865 154.11C135.489 151.564 143.131 140.329 140.851 128.13C138.547 115.806 127.387 108.215 113.763 110.761L96.8564 113.921L104.959 157.27ZM112.887 146.88L108.002 120.747L115.372 119.369C123.174 117.911 129.445 122.314 130.881 129.993C132.339 137.796 128.059 144.044 120.256 145.502L112.887 146.88ZM153.4 148.216L162.937 146.433L159.8 129.651L180.484 125.785L178.864 117.115L158.18 120.981L156.455 111.754L179.926 107.367L178.305 98.6969L145.298 104.867L153.4 148.216Z" fill="#2E595B"/>
<path d="M61.7732 112.495C65.0907 111.875 66.8637 110.475 68.2794 108.252L65.3888 106.122C64.2669 107.603 63.2097 108.615 61.2438 108.982C58.2949 109.534 55.7958 107.457 55.2446 104.508C54.6842 101.51 56.3229 98.7116 59.2227 98.1696C61.1886 97.8021 62.4523 98.3035 64.0044 99.2596L65.7783 96.2321C63.887 94.9579 61.8388 94.0691 58.595 94.6754C53.3115 95.663 50.3741 100.358 51.2882 105.248C52.2206 110.237 56.7109 113.441 61.7732 112.495ZM71.8005 110.315L75.5849 109.608L74.6019 104.349L76.2066 101.913L82.9081 108.239L87.4544 107.389L78.28 98.8547L83.9195 90.247L79.3487 91.1014L73.7751 99.9257L72.3695 92.4059L68.5851 93.1133L71.8005 110.315ZM88.2768 107.236L92.135 106.514L92.9866 102.362L100.261 101.003L102.555 104.567L106.511 103.827L95.9004 87.8804L92.4108 88.5327L88.2768 107.236ZM93.7135 98.7676L94.9562 92.762L98.2843 97.9132L93.7135 98.7676ZM119.143 101.466L122.928 100.759L119.712 83.5567L115.928 84.2641L117.315 91.6855C116.643 92.4469 115.285 93.2094 113.762 93.4942C111.82 93.8571 110.76 92.8091 110.36 90.6711L109.391 85.4859L105.607 86.1933L106.783 92.4843C107.527 96.4654 110.221 97.8184 113.637 97.1799C115.382 96.8537 116.895 95.8333 117.944 95.0522L119.143 101.466ZM125.57 100.265L129.429 99.5436L130.28 95.3915L137.554 94.0318L139.848 97.596L143.805 96.8565L133.194 80.9096L129.704 81.5618L125.57 100.265ZM131.007 91.7967L132.25 85.7911L135.578 90.9423L131.007 91.7967ZM150.465 95.6115L154.25 94.9041L151.687 81.1916L156.921 80.2132L156.269 76.7236L142.015 79.3878L142.668 82.8774L147.902 81.899L150.465 95.6115ZM162.395 93.3817L169.595 92.0358C173.625 91.2825 175.714 88.5777 175.052 85.039C174.423 81.6723 171.699 79.8924 167.718 80.6365L164.057 81.3209L162.964 75.4722L159.179 76.1796L162.395 93.3817ZM168.005 83.94C169.898 83.5863 171.012 84.2427 171.283 85.6926C171.582 87.29 170.775 88.28 168.907 88.6291L165.54 89.2584L164.663 84.5647L168.005 83.94Z" fill="#2E595B"/>
<defs>
<filter id="filter0_d_49_365" x="22.7544" y="23.8169" width="183.053" height="186.776" filterUnits="userSpaceOnUse" color-interpolation-filters="sRGB">
<feFlood flood-opacity="0" result="BackgroundImageFix"/>
<feColorMatrix in="SourceAlpha" type="matrix" values="0 0 0 0 0 0 0 0 0 0 0 0 0 0 0 0 0 0 127 0" result="hardAlpha"/>
<feOffset dy="4"/>
<feGaussianBlur stdDeviation="2"/>
<feComposite in2="hardAlpha" operator="out"/>
<feColorMatrix type="matrix" values="0 0 0 0 0 0 0 0 0 0 0 0 0 0 0 0 0 0 0.25 0"/>
<feBlend mode="normal" in2="BackgroundImageFix" result="effect1_dropShadow_49_365"/>
<feBlend mode="normal" in="SourceGraphic" in2="effect1_dropShadow_49_365" result="shape"/>
</filter>
</defs>
</svg>
