<svg width="63" height="63" viewBox="0 0 63 63" fill="none" xmlns="http://www.w3.org/2000/svg">
<path fill-rule="evenodd" clip-rule="evenodd" d="M25.6155 0.392464C14.2396 2.47982 4.67932 11.0917 1.34304 22.2574C0.347727 25.588 0.00261909 27.9692 8.99559e-06 31.5219C-0.0115914 47.022 11.1977 60.2695 26.3887 62.7088C28.8071 63.0971 33.5406 63.0971 35.959 62.7088C49.2917 60.5677 59.9293 49.8098 62.0464 36.3263C62.4303 33.8805 62.4303 29.0934 62.0464 26.6477C59.9597 13.3574 49.6206 2.6995 36.5736 0.388651C33.6395 -0.131062 28.4582 -0.129302 25.6155 0.392464ZM45.4325 19.4951C45.9067 20.2272 45.8878 20.5542 45.0143 26.7541C43.7583 35.6693 42.1415 44.6804 41.6128 45.7148C41.0392 46.8361 40.2048 47.2658 39.0836 47.0168C38.5877 46.9068 35.6551 45.0904 32.5668 42.9808C26.9229 39.1255 26.3875 38.5961 26.8005 37.2801C26.8962 36.9748 29.0287 34.7563 31.5393 32.3498C36.7206 27.3838 37.5289 26.4943 37.2597 26.054C37.0039 25.6352 35.6363 26.4605 28.2462 31.492C24.6704 33.9269 21.7184 35.7344 21.1409 35.8429C19.3774 36.1741 12.42 34.1603 12.061 33.2145C11.967 32.9669 12.0146 32.529 12.1668 32.2416C12.5096 31.5937 32.9679 22.5521 40.4542 19.7397C43.7255 18.5112 44.762 18.4601 45.4325 19.4951Z" fill="#8BADA9"/>
</svg>
