<svg width="40" height="41" viewBox="0 0 40 41" fill="none" xmlns="http://www.w3.org/2000/svg">
<path fill-rule="evenodd" clip-rule="evenodd" d="M16.4375 0.255413C9.13752 1.61385 3.00273 7.21844 0.861836 14.485C0.22314 16.6525 0.00168067 18.2022 5.77253e-06 20.5142C-0.00743823 30.6017 7.18552 39.223 16.9336 40.8105C18.4855 41.0632 21.523 41.0632 23.0749 40.8105C31.6305 39.4171 38.4567 32.4159 39.8152 23.6409C40.0616 22.0492 40.0616 18.9338 39.8152 17.3421C38.4762 8.69293 31.8416 1.75682 23.4693 0.252932C21.5865 -0.0852943 18.2616 -0.0841491 16.4375 0.255413ZM12.355 14.9415C12.6072 17.7953 13.5373 20.3043 14.9089 21.8303C15.6419 22.6461 16.8281 23.45 17.2984 23.45C17.4274 23.45 17.4919 21.7954 17.4919 18.4874V13.5247H19.3529H21.2139V16.3878C21.2139 17.9625 21.2433 19.2508 21.2793 19.2508C21.6617 19.2508 22.7967 18.6748 23.5638 18.0911C24.611 17.2944 25.9254 15.4355 26.266 14.2695L26.4837 13.5247H28.3151C30.4562 13.5247 30.4484 13.5136 29.6789 15.479C29.0836 16.9993 27.6236 18.9999 26.4251 19.9372C25.9131 20.3377 25.4942 20.7198 25.4942 20.7864C25.4942 20.853 25.6826 20.9958 25.913 21.1038C27.3882 21.7958 29.5736 24.2675 30.4341 26.2177C31.2909 28.1592 31.3865 28.031 29.0815 28.031H27.0606L26.5526 26.9686C25.596 24.9682 23.6893 23.3584 21.8188 22.9721L21.2139 22.8471V25.4391V28.031H20.1094C15.786 28.031 12.0533 25.6603 10.1635 21.7141C9.07071 19.432 8.38884 16.5796 8.37675 14.2404L8.37302 13.5247H10.3014H12.2298L12.355 14.9415Z" fill="#8BADA9"/>
</svg>
